<svg xmlns="http://www.w3.org/2000/svg" xmlns:xlink="http://www.w3.org/1999/xlink" version="1.1" x="0px" y="0px" viewBox="0 0 512 640" enable-background="new 0 0 512 512" xml:space="preserve"><path fill-rule="evenodd" clip-rule="evenodd" d="M153.221,300.555c-6.256-6.26-6.256-16.396,0-22.663  c6.257-6.259,16.411-6.259,22.675,0c6.256,6.268,6.256,16.403,0,22.663C169.632,306.822,159.478,306.822,153.221,300.555  L153.221,300.555z M493.225,141.892l-45.342,45.325c-2.672,2.677-5.616,4.919-8.608,7.038c-1.218,0.84-2.476,1.649-3.733,2.383  c-1.663,1.008-3.39,1.868-5.124,2.692c-4.147,1.958-8.396,3.606-12.794,4.665c-21.003,5.08-44.014-0.375-60.409-16.778  c-1.04-1.041-4.756-2.612-6.077-3.427c-24.722-15.239-57.479-12.328-78.912,9.097l-62.328,62.342l-0.016-0.02v0.02  c-6.256,6.268-16.395,6.268-22.651,0c-6.265-6.264-6.265-16.419,0-22.667l62.323-62.338c35.974-35.979,93.336-37.397,131.109-4.431  l0,0c12.591,11.464,32.392,10.929,44.553-1.239l45.335-45.33c12.521-12.523,12.521-32.818,0-45.345l-22.667-22.663  c-0.875-0.879-1.883-1.528-2.977-2.012c-50.919-40.984-168.199,3.196-280.352,115.35C52.797,276.313,8.557,393.136,48.767,444.369  c0.57,1.251,1.359,2.438,2.453,3.533l1.977,1.969l0.016,0.023l20.683,20.67c12.521,12.527,32.805,12.527,45.318,0l45.342-45.325  c12.162-12.168,12.396-31.618,0.938-44.216c0.086-0.109,0.18-0.234,0.266-0.344c-0.375-0.32-0.844-0.43-1.203-0.79  c-6.256-6.259-6.256-16.402,0-22.662c6.265-6.26,16.411-6.26,22.675,0c16.395,16.38,21.847,39.409,16.77,60.4  c-1.062,4.415-2.71,8.705-4.687,12.847c-0.804,1.688-1.664,3.376-2.632,5.01c-0.773,1.312-1.578,2.618-2.46,3.876  c-2.093,2.978-4.335,5.885-6.991,8.542l-45.342,45.325c-25.042,25.03-65.626,25.03-90.668,0l-28.337-28.337  c-56.332-56.32-5.647-198.354,119.006-322.999C266.538,17.23,408.547-33.448,464.887,22.881l28.338,28.336  C518.258,76.248,518.258,116.857,493.225,141.892L493.225,141.892z"/><text x="0" y="527" fill="#000000" font-size="5px" font-weight="bold" font-family="'Helvetica Neue', Helvetica, Arial-Unicode, Arial, Sans-serif">Created by Muhamad Ulum</text><text x="0" y="532" fill="#000000" font-size="5px" font-weight="bold" font-family="'Helvetica Neue', Helvetica, Arial-Unicode, Arial, Sans-serif">from the Noun Project</text></svg>