<?xml version="1.0" encoding="UTF-8"?>
<svg width="181px" height="47px" viewBox="0 0 181 47" version="1.1" xmlns="http://www.w3.org/2000/svg" xmlns:xlink="http://www.w3.org/1999/xlink">
    <!-- Generator: Sketch 49.3 (51167) - http://www.bohemiancoding.com/sketch -->
    <title>Group</title>
    <desc>Created with Sketch.</desc>
    <defs></defs>
    <g id="Page-1" stroke="none" stroke-width="1" fill="none" fill-rule="evenodd">
        <g id="Desktop" transform="translate(-229.000000, -822.000000)" fill="#253276">
            <g id="Page-1-Copy" transform="translate(24.000000, 815.169620)">
                <path d="M315.972156,27.3346819 C315.02927,27.2517512 313.527503,27.3094421 313.527503,27.3094421 L313.527503,33.4823712 C313.527503,33.4823712 314.830957,33.5274422 315.662067,33.4913854 C318.110326,33.3886234 319.563416,32.2149736 319.460654,30.2751162 C319.356089,28.3785271 318.016578,27.5131632 315.972156,27.3346819" id="Fill-9"></path>
                <path d="M319.135782,22.399764 C319.186262,20.7573754 317.911653,19.9370826 316.646058,19.852349 C315.432746,19.7694183 313.527142,19.8018695 313.527142,19.8018695 L313.527142,25.4429603 C313.527142,25.4429603 314.493465,25.4429603 315.192968,25.4285376 C317.222967,25.3762552 319.063668,24.7092039 319.135782,22.399764" id="Fill-10"></path>
                <path d="M329.769842,24.3241169 C327.083609,24.2393834 326.81138,27.3006082 326.81138,27.3006082 L332.284806,27.3006082 C332.284806,27.3006082 332.566049,24.414259 329.769842,24.3241169" id="Fill-11"></path>
                <g id="Group" transform="translate(205.000000, 8.000000)">
                    <path d="M35.9429433,26.3594535 C42.4512009,26.3594535 45.8549656,23.3937794 45.8549656,18.634278 C45.8549656,14.3579381 42.9415738,11.925905 38.3731736,11.925905 C29.77362,11.925905 25.3512499,19.4113026 25.3512499,26.4063274 C25.3512499,32.1898427 28.9461157,36.0280921 34.1437076,36.0280921 C36.0420996,36.0280921 39.8280666,35.3484209 41.9698423,34.620073 L41.9698423,29.9543193 C38.9572942,30.5366371 37.6430228,30.7331468 35.9429433,30.7331468 C33.1251022,30.7331468 32.1046939,28.5463002 32.1046939,26.3594535 L35.9429433,26.3594535 Z M32.8330419,22.568078 C33.3666829,19.5068532 35.5553324,17.4191628 37.1580585,17.4191628 C38.0829161,17.4191628 38.858138,17.8554505 38.858138,19.1192423 C38.858138,20.7706451 37.2067352,22.568078 34.8738584,22.568078 L32.8330419,22.568078 Z M10.1406767,20.7706451 C11.308918,19.5068532 13.4452851,18.3890915 14.6585973,18.3890915 C16.2162523,18.3890915 16.7498934,19.8493931 16.7498934,21.0627054 C16.7498934,24.0734506 14.4674962,30.7331468 10.4345399,30.7331468 C9.80174252,30.7331468 8.10166304,30.4897633 8.10166304,30.4897633 L10.1406767,20.7706451 Z M12.8160934,6.34070221 L12.8160934,0.557186879 L1.97741068,0.557186879 L1.97741068,6.34070221 L5.9634931,6.34070221 L0.425164206,35.5431278 L3.91907091,35.5431278 C5.81926578,35.5431278 7.90515333,36.0280921 10.2885097,36.0280921 C18.6446798,36.0280921 23.5051403,27.0878015 23.5051403,19.8980698 C23.5051403,14.404812 21.2209402,11.925905 18.403099,11.925905 C15.4392277,11.925905 12.5727098,13.9685243 11.0168576,15.3765435 L12.8160934,6.34070221 Z" id="Fill-1"></path>
                    <polygon id="Fill-3" points="50.1224715 44.0047641 54.2275415 44.0047641 54.2275415 25.381412 50.1224715 25.381412"></polygon>
                    <polygon id="Fill-5" points="58.7743076 44.0047641 62.8775747 44.0047641 62.8775747 25.381412 58.7743076 25.381412"></polygon>
                    <polygon id="Fill-6" points="67.4261436 44.0047641 71.5294107 44.0047641 71.5294107 25.381412 67.4261436 25.381412"></polygon>
                    <polygon id="Fill-7" points="50.1224715 21.4638376 76.0437257 21.4638376 76.0437257 17.2199489 50.1224715 17.2199489"></polygon>
                    <path d="M70.827204,11.7834805 C70.827204,10.1212607 72.1757294,8.77273531 73.8361464,8.77273531 C75.500169,8.77273531 76.8468916,10.1212607 76.8468916,11.7834805 C76.8468916,13.4457003 75.500169,14.7942257 73.8361464,14.7942257 C72.1757294,14.7942257 70.827204,13.4457003 70.827204,11.7834805" id="Fill-8"></path>
                    <path d="M169.5627,18.5055551 L169.5627,27.5017339 L167.049539,27.5017339 L167.049539,18.7777841 C167.049539,18.7777841 167.181146,16.3890192 165.015934,16.5206267 C163.166218,16.6342057 162.252178,17.9556884 161.85375,19.120324 C161.439096,20.3246221 161.545464,21.4640179 161.545464,21.4640179 L161.545464,27.5017339 L159.048529,27.5017339 L159.048529,16.709925 L156.944613,16.4611329 L156.944613,15.1270302 C156.944613,15.1270302 157.914541,15.0368882 159.257658,14.959366 C160.66748,14.880041 161.545464,14.9142949 161.545464,14.9142949 L161.545464,17.1804666 C161.545464,17.1804666 162.338714,14.6096147 166.418544,14.7754762 C169.768224,14.9142949 169.5627,18.5055551 169.5627,18.5055551 Z M155.424817,27.5017339 L148.568611,27.5017339 L148.568611,26.1171516 L150.72481,25.7728089 L150.72481,16.7261506 L148.568611,16.4358931 L148.568611,15.1017905 C149.406933,15.0260711 149.826995,14.9918171 150.72481,14.9557603 C151.808317,14.9142949 152.62861,14.880041 153.16766,14.9142949 L153.16766,25.7728089 L155.424817,26.1171516 L155.424817,27.5017339 Z M146.74053,27.5017339 L139.987086,27.5017339 L139.987086,26.1171516 L142.089199,25.7728089 L142.089199,10.7226886 C142.089199,10.7226886 141.485247,10.627138 141.095834,10.5784613 C140.664954,10.5225732 139.987086,10.4666851 139.987086,10.4666851 L139.987086,9.16683644 C139.987086,9.16683644 141.519501,9.06587732 142.498444,9.04604607 C143.327751,9.03162334 144.616783,9.04604607 144.616783,9.04604607 L144.616783,25.7728089 L146.74053,26.1171516 L146.74053,27.5017339 Z M139.610292,17.1552268 C139.610292,17.1552268 137.746154,16.778433 136.857353,17.7267276 C135.591759,19.0770558 135.696323,21.7885293 135.696323,21.7885293 L135.696323,27.5017339 L133.233642,27.5017339 L133.233642,16.6918966 L131.129726,16.4178647 L131.129726,15.0675365 C131.129726,15.0675365 132.413349,14.9773944 133.233642,14.9485489 C134.163908,14.9142949 135.627815,14.9142949 135.627815,14.9142949 L135.627815,17.3751735 C135.627815,17.3751735 135.936101,15.9112663 136.994369,15.2640462 C138.113934,14.5807693 139.610292,14.7754762 139.610292,14.7754762 L139.610292,17.1552268 Z M129.763172,21.1719576 L121.639569,21.1719576 C121.639569,21.1719576 121.197873,25.8431197 125.43455,25.7728089 C127.599763,25.7385549 129.213306,25.0029956 129.213306,25.0029956 L129.213306,26.9374445 C129.213306,26.9374445 127.231983,27.6730038 125.728413,27.7415118 C124.058982,27.8172311 122.360705,27.4242117 121.524187,26.8617251 C119.490582,25.4951713 119.133619,22.8053319 119.160662,21.2422684 C119.196719,19.3258479 119.724951,14.7592506 124.821584,14.640263 C130.565437,14.5050499 129.763172,21.1719576 129.763172,21.1719576 Z M110.285273,27.5017339 L103.791439,27.5017339 L103.791439,26.1171516 L105.926003,25.7061038 L105.926003,11.6114894 C105.926003,11.6114894 105.534786,11.5772354 104.766776,11.4672621 C104.168232,11.3825286 103.791439,11.2707524 103.791439,11.2707524 L103.791439,9.84290198 C103.791439,9.84290198 104.936243,9.86814176 106.25412,9.88436734 C107.568391,9.90239575 108.713196,9.79963379 110.323133,9.79963379 C113.299624,9.79963379 116.559162,10.2088788 116.717812,13.9732117 C116.854828,17.221932 113.606107,18.1630152 113.606107,18.1630152 C113.606107,18.1630152 117.231621,18.6587966 117.109028,22.4898347 C116.943167,27.8623021 110.285273,27.5017339 110.285273,27.5017339 Z M151.8606,9.66261784 C152.789063,9.66261784 153.542651,10.4162056 153.542651,11.3482746 C153.542651,12.2785408 152.789063,13.0321285 151.8606,13.0321285 C150.926728,13.0321285 150.17314,12.2785408 150.17314,11.3482746 C150.17314,10.4162056 150.926728,9.66261784 151.8606,9.66261784 Z M84.7227847,0.457309463 L84.7227847,17.2201291 L97.4490424,17.2201291 L97.4490424,21.4658207 L76.0312861,21.4658207 L76.0312861,44.0067472 L80.1453703,44.0067472 L80.1453703,25.464523 L84.7227847,25.464523 L84.7227847,44.0067472 L88.8278546,44.0067472 L88.8278546,25.464523 L93.3403667,25.464523 L93.3403667,44.0067472 L97.4490424,44.0067472 L97.4490424,35.6253374 L180.31124,35.6253374 L180.31124,0.457309463 L84.7227847,0.457309463 Z" id="Fill-12"></path>
                </g>
            </g>
        </g>
    </g>
</svg>