<?xml version="1.0" encoding="UTF-8"?>
<svg width="20px" height="20px" viewBox="0 0 20 20" version="1.1" xmlns="http://www.w3.org/2000/svg" xmlns:xlink="http://www.w3.org/1999/xlink">
    <!-- Generator: Sketch 49.3 (51167) - http://www.bohemiancoding.com/sketch -->
    <title>phone</title>
    <desc>Created with Sketch.</desc>
    <defs></defs>
    <g id="Page-1" stroke="none" stroke-width="1" fill="none" fill-rule="evenodd">
        <g id="Desktop" transform="translate(-758.000000, -118.000000)" fill="#FFFFFF" fill-rule="nonzero">
            <path d="M764.255567,129.184971 C764.022753,128.952008 764.022753,128.574801 764.255567,128.341577 C764.488418,128.108651 764.866295,128.108651 765.099407,128.341577 C765.332222,128.574838 765.332222,128.952008 765.099407,129.184971 C764.866295,129.418195 764.488418,129.418195 764.255567,129.184971 Z M776.908671,123.280395 L775.221288,124.967145 C775.121851,125.066769 775.012291,125.150204 774.900945,125.229062 C774.855618,125.260322 774.808802,125.290428 774.762023,125.317744 C774.700135,125.355256 774.635866,125.387261 774.571335,125.417925 C774.417007,125.490792 774.258882,125.552121 774.095212,125.591531 C773.313594,125.780582 772.45725,125.577576 771.847117,124.967145 C771.808414,124.928405 771.670124,124.869941 771.620964,124.839611 C770.700945,124.272498 769.481907,124.38083 768.684287,125.178152 L766.364777,127.498183 L766.364182,127.497439 L766.364182,127.498183 C766.131368,127.731444 765.754049,127.731444 765.521235,127.498183 C765.288085,127.265071 765.288085,126.887157 765.521235,126.65464 L767.840559,124.334758 C769.179316,122.995815 771.314018,122.943045 772.719724,124.16986 C773.188293,124.596488 773.925179,124.576578 774.377745,124.123751 L776.064868,122.436815 C776.530832,121.970777 776.530832,121.215507 776.064868,120.74932 L775.221325,119.905926 C775.188762,119.873214 775.15125,119.849062 775.110537,119.83105 C773.215608,118.305848 768.851083,119.949988 764.677357,124.123751 C760.51833,128.282815 758.871958,132.630333 760.368356,134.536948 C760.389568,134.583503 760.41893,134.627677 760.459643,134.668427 L760.533216,134.741702 L760.533812,134.742558 L761.303521,135.511784 C761.769484,135.977971 762.524345,135.977971 762.990011,135.511784 L764.677394,133.825033 C765.129998,133.372206 765.138706,132.648382 764.712301,132.179553 C764.715502,132.175497 764.719,132.170845 764.7222,132.166751 C764.708245,132.154843 764.690791,132.150749 764.677431,132.137352 C764.444617,131.904426 764.444617,131.526958 764.677431,131.293995 C764.910581,131.061032 765.28816,131.061032 765.521272,131.293995 C766.131405,131.90357 766.334299,132.760584 766.14536,133.541756 C766.105838,133.706058 766.044509,133.865708 765.970936,134.019851 C765.941015,134.082669 765.90901,134.145488 765.872987,134.206296 C765.84422,134.255122 765.814262,134.303724 765.781439,134.35054 C765.703549,134.461365 765.620114,134.569548 765.521272,134.668427 L763.833889,136.355177 C762.901961,137.286658 761.391645,137.286658 760.459717,136.355177 L759.405168,135.300628 C757.308797,133.204703 759.195017,127.918968 763.833926,123.280358 C768.472611,118.641151 773.757415,116.755191 775.854085,118.851451 L776.908671,119.905963 C777.840264,120.837481 777.840264,122.348728 776.908671,123.280395 Z" id="Shape-Copy" transform="translate(768.080500, 127.526866) scale(-1, -1) rotate(90.000000) translate(-768.080500, -127.526866) "></path>
        </g>
    </g>
</svg>