<svg version="1" xmlns="http://www.w3.org/2000/svg" width="346.667" height="346.667" viewBox="0 0 260.000000 260.000000"><path d="M118.5 18.6C77.9 24.4 47 45.9 29.8 80.5c-8.3 16.5-11.2 30.2-11.2 51 0 13.9.4 17.2 2.6 25.6 5.6 20.8 15.1 37.5 29.7 52 14.5 14.6 31.2 24.1 52 29.7 8.6 2.3 11.4 2.6 27.1 2.6 15.7 0 18.5-.3 27.1-2.6 20.8-5.6 37.5-15.1 52-29.7 14.6-14.6 24.2-31.4 29.6-52 2.2-8.2 2.6-11.9 2.6-25.6.2-16.9-.6-22.3-5-36-5.5-16.9-14.5-31.7-27.3-44.5-15.7-15.6-34.5-25.9-56.5-30.6-6.9-1.5-28.2-2.6-34-1.8zm33.2 5.8c42.2 8.9 75 41.6 83.8 83.5 1.9 9.1 2.9 23.7 2.1 29.5l-.7 4.6-6.1-3.1c-9.9-5-19.6-7-33.8-7.1-21.8-.1-32.1 3.5-55.6 19.3-15.7 10.7-23.5 14.2-36 16.4-11 1.9-19.8 1.9-30.8 0-12.6-2.2-20.3-5.7-36.8-16.7-17-11.4-16.5-10.6-15.4-26.5 1.6-22.9 8.8-42.4 22.2-59.9 16-21 40.9-36.2 65.9-40.3 3.9-.6 8.1-1.3 9.5-1.5 4.7-.9 24.5.3 31.7 1.8z"/></svg>