<svg xmlns="http://www.w3.org/2000/svg" width="188" height="33" viewBox="0 0 188 33"><g fill="none" fill-rule="evenodd"><path fill="#ECB360" fill-rule="nonzero" d="M32.4137931,16.2068966 C32.4137931,25.157982 25.157982,32.4137931 16.2068966,32.4137931 C7.25611816,32.4137931 0,25.157982 0,16.2068966 C0,7.25611816 7.25611816,1.85530603e-15 16.2068966,1.85530603e-15 C25.157982,1.85530603e-15 32.4137931,7.25611816 32.4137931,16.2068966"/><path fill="#D76835" fill-rule="nonzero" d="M28.091954,14.5862069 C28.091954,22.6418864 21.8030021,29.1724138 14.0459771,29.1724138 C6.28865601,29.1724138 0,22.6418864 0,14.5862069 C0,6.53052739 6.28865601,3.71061206e-15 14.0459771,3.71061206e-15 C21.8030021,3.71061206e-15 28.091954,6.53052739 28.091954,14.5862069"/><path fill="#D33A41" fill-rule="nonzero" d="M29.1724138,12.9653596 C29.1724138,20.1261388 23.6093887,25.9310345 16.7466734,25.9310345 C9.88486412,25.9310345 4.32183908,20.1261388 4.32183908,12.9653596 C4.32183908,5.80489569 9.88486412,0 16.7466734,0 C23.6093887,0 29.1724138,5.80489569 29.1724138,12.9653596"/><path fill="#B6CB46" fill-rule="nonzero" d="M28.091954,14.046134 C28.091954,20.6097419 23.0125384,25.9310345 16.7469766,25.9310345 C10.4814147,25.9310345 5.40229885,20.6097419 5.40229885,14.046134 C5.40229885,7.48189807 10.4814147,2.16091954 16.7469766,2.16091954 C23.0125384,2.16091954 28.091954,7.48189807 28.091954,14.046134"/><path fill="#66AD4A" fill-rule="nonzero" d="M27.0114943,15.1262827 C27.0114943,21.0935182 22.173978,25.9310345 16.2067425,25.9310345 C10.2398151,25.9310345 5.40229885,21.0935182 5.40229885,15.1262827 C5.40229885,9.15904714 10.2398151,4.32183908 16.2067425,4.32183908 C22.173978,4.32183908 27.0114943,9.15904714 27.0114943,15.1262827"/><path fill="#AED7DC" fill-rule="nonzero" d="M22.6896551,12.9655172 C22.6896551,17.7392808 18.8197406,21.6091954 14.0459771,21.6091954 C9.27192056,21.6091954 5.40229885,17.7392808 5.40229885,12.9655172 C5.40229885,8.19175367 9.27192056,4.32183908 14.0459771,4.32183908 C18.8197406,4.32183908 22.6896551,8.19175367 22.6896551,12.9655172"/><path fill="#5BB1CF" fill-rule="nonzero" d="M23.770115,11.8850574 C23.770115,16.061975 20.3840517,19.4482759 16.2067435,19.4482759 C12.0294352,19.4482759 8.64367816,16.061975 8.64367816,11.8850574 C8.64367816,7.70783378 12.0294352,4.32183908 16.2067435,4.32183908 C20.3840517,4.32183908 23.770115,7.70783378 23.770115,11.8850574"/><path fill="#25A8C3" fill-rule="nonzero" d="M23.770115,12.4251254 C23.770115,16.3038184 20.8677707,19.4482759 17.2873563,19.4482759 C13.7069418,19.4482759 10.8045977,16.3038184 10.8045977,12.4251254 C10.8045977,8.54675629 13.7069418,5.40229885 17.2873563,5.40229885 C20.8677707,5.40229885 23.770115,8.54675629 23.770115,12.4251254"/><path d="M21.6091954,13.5055871 C21.6091954,16.7875996 19.1903989,19.4482759 16.2067511,19.4482759 C13.2233942,19.4482759 10.8045977,16.7875996 10.8045977,13.5055871 C10.8045977,10.2235746 13.2233942,7.56321839 16.2067511,7.56321839 C19.1903989,7.56321839 21.6091954,10.2235746 21.6091954,13.5055871"/><path fill="#1B1A18" fill-rule="nonzero" d="M16.2067511,19.4482759 C13.2233942,19.4482759 10.8045977,16.7875996 10.8045977,13.5055871 C10.8045977,10.2235746 13.2233942,7.56321839 16.2067511,7.56321839 C19.1903989,7.56321839 21.6091954,10.2235746 21.6091954,13.5055871 C21.6091954,16.7875996 19.1903989,19.4482759 16.2067511,19.4482759 Z"/><path fill="#FFFFFE" fill-rule="nonzero" d="M19.154634,11.7922126 C18.6406826,12.6519966 17.630202,13.1492498 16.8972867,12.9021103 C16.1643714,12.655268 15.9869829,11.7577142 16.5005384,10.8976326 C17.0144897,10.0375511 18.0249704,9.54059531 18.7578857,9.78743751 C19.490801,10.0342797 19.6681894,10.9318336 19.154634,11.7922126"/><path fill="#1B1A18" fill-rule="nonzero" d="M122.142532 13.7476257C121.884192 13.022957 121.755218 12.1045925 121.755218 10.8724171 121.755218 9.64024162 121.884192 8.72227489 122.142532 7.99720845 122.865258 5.91945359 124.777059 4.78392715 127.281825 4.78392715 129.141328 4.78392715 130.613518 5.48433418 131.594583 6.59599667 131.672439 6.69264567 131.697999 6.83781806 131.569025 6.93446706L129.94191 8.2628938C129.812937 8.35954281 129.68357 8.33567886 129.580548 8.21476816 128.960844 7.56248677 128.315189 7.20015241 127.281825 7.20015241 126.171392 7.20015241 125.318906 7.70765916 124.95715 8.72227489 124.750714 9.30216896 124.699203 9.97871201 124.699203 10.8724171 124.699203 11.7665198 124.750714 12.4673246 124.95715 13.0472187 125.318906 14.0375727 126.171392 14.5450795 127.281825 14.5450795 128.315189 14.5450795 128.960844 14.1827451 129.580548 13.5304637 129.68357 13.409553 129.812937 13.409553 129.94191 13.5062021L131.569025 14.8350265C131.697999 14.9316755 131.672439 15.0525863 131.594583 15.1730992 130.613518 16.2604999 129.141328 16.9613047 127.281825 16.9613047 124.777059 16.9613047 122.865258 15.8257783 122.142532 13.7476257M141.678527 16.6956194C141.498043 16.6956194 141.368676 16.623232 141.26526 16.453798L138.114446 11.5732218 136.43582 13.3852913 136.43582 16.453798C136.43582 16.5989703 136.332798 16.6956194 136.177873 16.6956194L133.801294 16.6956194C133.646761 16.6956194 133.543346 16.5989703 133.543346 16.453798L133.543346.507109007C133.543346.362334353 133.646761.26568535 133.801294.26568535L136.177873.26568535C136.332798.26568535 136.43582.362334353 136.43582.507109007L136.43582 9.97871201 140.697462 5.29143389C140.851994 5.12199982 140.981361 5.0496125 141.187798 5.0496125L143.822324 5.0496125C143.97725 5.0496125 144.028761 5.19438715 143.925346 5.29143389L139.97395 9.54359259 144.51949 16.453798C144.597346 16.550447 144.545443 16.6956194 144.390517 16.6956194L141.678527 16.6956194ZM3.20232557 14.1827451 6.86982197 14.1827451C8.57439974 14.1827451 9.52990701 13.2643807 9.52990701 11.8874306 9.52990701 10.5343444 8.57439974 9.61637763 6.86982197 9.61637763L3.20232557 9.61637763C3.09930381 9.61637763 3.04739971 9.66450333 3.04739971 9.76115236L3.04739971 14.0375727C3.04739971 14.1342217 3.09930381 14.1827451 3.20232557 14.1827451L3.20232557 14.1827451ZM6.7148961 7.1035034C8.264548 7.1035034 9.22005527 6.23366231 9.22005527 4.95296348 9.22005527 3.64840071 8.264548 2.77855962 6.7148961 2.77855962L3.20232557 2.77855962C3.09930381 2.77855962 3.04739971 2.82668526 3.04739971 2.92333427L3.04739971 6.95833102C3.04739971 7.05498004 3.09930381 7.1035034 3.20232557 7.1035034L6.7148961 7.1035034ZM7.10542736e-15.507109007C7.10542736e-15.362334353.103414988.26568535.257947646.26568535L6.79235903.26568535C10.5113664.26568535 12.2674549 2.00536754 12.2674549 4.63875477 12.2674549 6.49934766 11.3378998 7.56248677 10.2270734 8.11811915L10.2270734 8.16664252C11.3119477 8.55284083 12.5773067 9.85780138 12.5773067 11.8631689 12.5773067 15.1249736 10.3819993 16.6956194 6.53401819 16.6956194L.257947646 16.6956194C.103414988 16.6956194 7.10542736e-15 16.5989703 7.10542736e-15 16.453798L7.10542736e-15.507109007ZM14.7199236 16.6956194C14.5646046 16.6956194 14.4611895 16.5989703 14.4611895 16.453798L14.4611895 5.29143389C14.4611895 5.14626151 14.5646046 5.0496125 14.7199236 5.0496125L17.0957157 5.0496125C17.2506416 5.0496125 17.3540566 5.14626151 17.3540566 5.29143389L17.3540566 6.28178795 17.3800086 6.28178795C17.97376 5.3880829 19.0326823 4.78392715 20.6082862 4.78392715 21.5893524 4.78392715 22.5708116 5.14626151 23.2164672 5.75041726 23.3458342 5.87093022 23.3717863 5.96797697 23.2679781 6.08848993L21.8992041 7.70765916C21.7961823 7.82817212 21.6668153 7.8524338 21.5378415 7.7557848 20.9696489 7.41731439 20.3755043 7.20015241 19.7042899 7.20015241 18.0771751 7.20015241 17.3540566 8.28715548 17.3540566 10.1477483L17.3540566 16.453798C17.3540566 16.5989703 17.2506416 16.6956194 17.0957157 16.6956194L14.7199236 16.6956194ZM31.2089119 13.022957C31.4157418 12.4188012 31.4672528 11.8631689 31.4672528 10.8724171 31.4672528 9.88206299 31.4157418 9.3502946 31.2089119 8.72227489 30.8471561 7.7557848 30.0469678 7.20015241 28.8846307 7.20015241 27.7222934 7.20015241 26.89576 7.7557848 26.5343974 8.72227489 26.3279606 9.3502946 26.2760565 9.88206299 26.2760565 10.8724171 26.2760565 11.8631689 26.3279606 12.4188012 26.5343974 13.022957 26.89576 13.9894471 27.7222934 14.5450795 28.8846307 14.5450795 30.0469678 14.5450795 30.8471561 13.9894471 31.2089119 13.022957ZM23.7453385 13.7476257C23.4610456 12.926308 23.3320718 12.1531159 23.3320718 10.8724171 23.3320718 9.59211602 23.4610456 8.81892391 23.7453385 7.99720845 24.442505 5.96797697 26.3535194 4.78392715 28.8846307 4.78392715 31.3897898 4.78392715 33.3008044 5.96797697 33.998364 7.99720845 34.2822637 8.81892391 34.4116307 9.59211602 34.4116307 10.8724171 34.4116307 12.1531159 34.2822637 12.926308 33.998364 13.7476257 33.3008044 15.7772549 31.3897898 16.9613047 28.8846307 16.9613047 26.3535194 16.9613047 24.442505 15.7772549 23.7453385 13.7476257L23.7453385 13.7476257ZM46.9393925 16.6956194C46.7840735 16.6956194 46.6810517 16.5989703 46.6291476 16.453798L44.2274034 9.01222193 44.1758926 9.01222193 41.7481964 16.453798C41.6962923 16.5989703 41.5932705 16.6956194 41.4379513 16.6956194L39.3205001 16.6956194C39.165181 16.6956194 39.0621592 16.5989703 39.0106484 16.453798L35.0848112 5.29143389C35.032907 5.14626151 35.1107632 5.0496125 35.265689 5.0496125L37.7448962 5.0496125C37.9257741 5.0496125 38.029189 5.12199982 38.0807 5.29143389L40.4824442 12.9748314 40.5343483 12.9748314 42.9101404 5.29143389C42.9620445 5.14626151 43.0910182 5.0496125 43.2459441 5.0496125L45.1054477 5.0496125C45.2603736 5.0496125 45.3897407 5.14626151 45.4412515 5.29143389L47.9723628 12.9748314 48.0238737 12.9748314 50.296644 5.29143389C50.3481549 5.12199982 50.4515699 5.0496125 50.6324478 5.0496125L53.1116549 5.0496125C53.2665808 5.0496125 53.3440438 5.14626151 53.2925328 5.29143389L49.3666956 16.453798C49.3151847 16.5989703 49.2117697 16.6956194 49.0568438 16.6956194L46.9393925 16.6956194ZM53.8017435 15.1249736C53.6987218 15.0283245 53.6987218 14.8835499 53.8017435 14.7869009L55.2739325 13.3371657C55.3773474 13.2405167 55.5322733 13.2405167 55.6356883 13.3371657 56.5396847 14.1103578 57.9859216 14.6659902 59.2772327 14.6659902 60.8009325 14.6659902 61.5755618 14.0860961 61.5755618 13.2886423 61.5755618 12.5878375 61.1367363 12.1531159 59.5096215 12.0079435L58.1664063 11.8874306C55.6356883 11.6456092 54.343984 10.4376954 54.343984 8.45619182 54.343984 6.20940062 56.0745139 4.78392715 59.1738177 4.78392715 61.1107843 4.78392715 62.7378991 5.3880829 63.8483322 6.20940062 63.9776993 6.30604964 63.9776993 6.45082428 63.9002363 6.54747329L62.6344841 7.9733445C62.5314624 8.09385747 62.4020953 8.09385747 62.2731214 8.02147013 61.498099 7.5139634 60.2586919 7.05498004 59.0188918 7.05498004 57.7790916 7.05498004 57.1334361 7.56248677 57.1334361 8.2628938 57.1334361 8.9398346 57.5726549 9.3502946 59.1738177 9.495467L60.5166396 9.61637763C63.1252138 9.85780138 64.3650139 11.1142385 64.3650139 13.022957 64.3650139 15.3425332 62.5570212 16.9613047 59.1478656 16.9613047 56.5911956 16.9613047 54.8351069 16.0190763 53.8017435 15.1249736M73.8611046 8.57710252C73.5253008 7.6348741 72.5953524 7.07924172 71.4334084 7.07924172 70.2455123 7.07924172 69.3155639 7.6348741 68.9801533 8.57710252 68.8763451 8.86704955 68.8248342 9.15699658 68.8248342 9.56785431 68.8248342 9.66450333 68.8763451 9.71302665 68.9801533 9.71302665L73.8611046 9.71302665C73.9645196 9.71302665 74.0160305 9.66450333 74.0160305 9.56785431 74.0160305 9.15699658 73.9645196 8.86704955 73.8611046 8.57710252ZM66.3456271 13.723364C66.0872862 12.9748314 65.9064084 12.0807286 65.9064084 10.8724171 65.9064084 9.66450333 66.0617274 8.74653659 66.3196751 7.99720845 67.0168415 5.96797697 68.927856 4.78392715 71.4074563 4.78392715 73.9645196 4.78392715 75.8240233 6.01610261 76.5211896 7.99720845 76.8054826 8.81892391 76.9344563 9.61637763 76.9344563 11.5008345 76.9344563 11.6456092 76.8310414 11.7422581 76.6505567 11.7422581L68.9801533 11.7422581C68.8763451 11.7422581 68.8248342 11.7907816 68.8248342 11.8874306 68.8248342 12.2255033 68.9022972 12.5154502 69.0057122 12.7811356 69.4189789 13.9170598 70.4004382 14.5450795 71.794771 14.5450795 73.1894971 14.5450795 74.0938866 14.0618344 74.7131968 13.4338148 74.8425639 13.312904 74.9715378 13.2886423 75.1005115 13.3852913L76.6246046 14.6417284C76.7535785 14.7383775 76.7535785 14.8592882 76.6505567 14.9801988 75.5916345 16.1395893 73.8351526 16.9613047 71.5368234 16.9613047 68.9022972 16.9613047 67.0427935 15.7533909 66.3456271 13.723364L66.3456271 13.723364ZM79.0762868 16.6956194C78.9217542 16.6956194 78.8183393 16.5989703 78.8183393 16.453798L78.8183393 5.29143389C78.8183393 5.14626151 78.9217542 5.0496125 79.0762868 5.0496125L81.4524722 5.0496125C81.6077912 5.0496125 81.710813 5.14626151 81.710813 5.29143389L81.710813 6.28178795 81.7367651 6.28178795C82.3305165 5.3880829 83.3894387 4.78392715 84.9650427 4.78392715 85.946502 4.78392715 86.9275681 5.14626151 87.5732236 5.75041726 87.7025907 5.87093022 87.7281495 5.96797697 87.6251277 6.08848993L86.2563538 7.70765916C86.153332 7.82817212 86.0239649 7.8524338 85.8945979 7.7557848 85.3267986 7.41731439 84.7326539 7.20015241 84.0614395 7.20015241 82.4343247 7.20015241 81.710813 8.28715548 81.710813 10.1477483L81.710813 16.453798C81.710813 16.5989703 81.6077912 16.6956194 81.4524722 16.6956194L79.0762868 16.6956194ZM88.0702448 14.7869009C87.9668297 14.6902519 87.9153189 14.5450795 88.0187338 14.4241688L89.6198966 12.6844866C89.7233116 12.5639736 89.8782374 12.5639736 89.9812592 12.6606227 91.1180377 13.5062021 92.7966634 14.3999071 94.7591888 14.3999071 96.8510812 14.3999071 98.0649293 13.409553 98.0649293 12.0326029 98.0649293 10.8485531 97.2902999 10.075361 94.8626037 9.76115236L93.9326553 9.64024162C90.5498451 9.20551995 88.6384373 7.68299974 88.6384373 4.95296348 88.6384373 1.98110585 90.9627186 1.77635684e-15 94.5783108 1.77635684e-15 96.7736183 1.77635684e-15 98.8655107.652281385 100.260237 1.64263545 100.389604 1.73968219 100.415556 1.8363312 100.312141 1.98110585L99.0723407 3.76891368C98.969319 3.88982437 98.8399519 3.91408606 98.7105849 3.84169873 97.2902999 2.97185764 95.9730369 2.56099991 94.5012411 2.56099991 92.7188072 2.56099991 91.7377411 3.47936438 91.7377411 4.75966547 91.7377411 5.89519191 92.5898334 6.66838399 94.9660188 6.9825927L95.8959671 7.1035034C99.2787774 7.53822509 101.138281 9.03608588 101.138281 11.8631689 101.138281 14.7869009 98.8914627 16.9613047 94.5268 16.9613047 91.9445711 16.9613047 89.4390187 15.9948147 88.0702448 14.7869009M106.489908 16.9008493C103.984749 16.9008493 103.029242 15.765323 103.029242 13.4938723L103.029242 7.35725678C103.029242 7.26060776 102.977338 7.21208439 102.873923 7.21208439L102.047389 7.21208439C101.892857 7.21208439 101.789442 7.11543538 101.789442 6.970263L101.789442 5.3514915C101.789442 5.20671686 101.892857 5.11006785 102.047389 5.11006785L102.873923 5.11006785C102.977338 5.11006785 103.029242 5.06154447 103.029242 4.96489547L103.029242 1.77547812C103.029242 1.63070347 103.132657 1.53405446 103.287189 1.53405446L105.663375 1.53405446C105.8183 1.53405446 105.921716 1.63070347 105.921716 1.77547812L105.921716 4.96489547C105.921716 5.06154447 105.973227 5.11006785 106.076641 5.11006785L107.729709 5.11006785C107.884241 5.11006785 107.987656 5.20671686 107.987656 5.3514915L107.987656 6.970263C107.987656 7.11543538 107.884241 7.21208439 107.729709 7.21208439L106.076641 7.21208439C105.973227 7.21208439 105.921716 7.26060776 105.921716 7.35725678L105.921716 13.3976211C105.921716 14.2189388 106.283472 14.4846242 107.084053 14.4846242L107.729709 14.4846242C107.884241 14.4846242 107.987656 14.5812732 107.987656 14.7264455L107.987656 16.659028C107.987656 16.8042004 107.884241 16.9008493 107.729709 16.9008493L106.489908 16.9008493ZM117.133787 12.7811356 117.133787 11.8874306C117.133787 11.7907816 117.081884 11.7422581 116.978468 11.7422581L114.912528 11.7422581C113.053024 11.7422581 112.226491 12.2255033 112.226491 13.312904 112.226491 14.2793942 112.975168 14.7626392 114.369894 14.7626392 116.152328 14.7626392 117.133787 14.1103578 117.133787 12.7811356L117.133787 12.7811356ZM117.443246 16.6956194C117.28832 16.6956194 117.185298 16.5989703 117.185298 16.453798L117.185298 15.6082186 117.159346 15.6082186C116.565201 16.4056724 115.402864 16.9613047 113.647168 16.9613047 111.374399 16.9613047 109.46299 15.85004 109.46299 13.409553 109.46299 10.8724171 111.374399 9.71302665 114.447357 9.71302665L116.978468 9.71302665C117.081884 9.71302665 117.133787 9.66450333 117.133787 9.56785431L117.133787 9.01222193C117.133787 7.68299974 116.461786 7.07924172 114.369894 7.07924172 112.975168 7.07924172 112.123075 7.44157607 111.528931 7.87669549 111.399957 7.9733445 111.245031 7.94908281 111.167569 7.82817212L110.212061 6.23366231C110.134598 6.11275161 110.160551 5.99184091 110.263572 5.91945359 111.270983 5.24291052 112.639757 4.78392715 114.680139 4.78392715 118.47661 4.78392715 119.871336 5.99184091 119.871336 8.84318559L119.871336 16.453798C119.871336 16.5989703 119.767527 16.6956194 119.612994 16.6956194L117.443246 16.6956194Z" transform="translate(42.536 8.535)"/></g></svg>